<?xml version="1.0" encoding="utf-8"?>
<!-- Generator: Adobe Illustrator 18.1.0, SVG Export Plug-In . SVG Version: 6.00 Build 0)  -->
<svg version="1.0" id="Layer_1" xmlns="http://www.w3.org/2000/svg" xmlns:xlink="http://www.w3.org/1999/xlink" x="0px" y="0px"
	 viewBox="0 0 253.4 47.9" enable-background="new 0 0 253.4 47.9" xml:space="preserve">
<g>
	<g>
		<g>
			<g>
				<g>
					<rect x="198.1" y="11.5" fill="#FFFFFF" width="44.8" height="2.9"/>
				</g>
			</g>
			<g>
				<g>
					<rect x="198.1" y="22.3" fill="#FFFFFF" width="44.8" height="2.9"/>
				</g>
			</g>
			<g>
				<g>
					<rect x="198.1" y="33.2" fill="#FFFFFF" width="44.8" height="2.9"/>
				</g>
			</g>
			<g>
				<g>
					<rect x="9.8" y="11.5" fill="#FFFFFF" width="44.8" height="2.9"/>
				</g>
			</g>
			<g>
				<g>
					<rect x="9.8" y="22.3" fill="#FFFFFF" width="44.8" height="2.9"/>
				</g>
			</g>
			<g>
				<g>
					<rect x="9.8" y="33.2" fill="#FFFFFF" width="44.8" height="2.9"/>
				</g>
			</g>
		</g>
		<g>
			<g>
				<path fill="#FFFFFF" d="M100.8,35.8H90l-7.3-8.1l-7.3,8.1H64.7l11.9-12.1l-10.9-12h10.3l6.8,7.7l6.7-7.7h10.2l-10.9,12
					L100.8,35.8z"/>
			</g>
			<g>
				<path fill="#FFFFFF" d="M113,35.8h-8.2v-7.3h8.2V35.8z"/>
			</g>
			<g>
				<path fill="#FFFFFF" d="M149,29.5c0,5.1-2.2,6.6-15.5,6.6h-1c-11.3,0-13.1-1.5-13.1-7.6v-1.1h7.6v0.7c0,1.7,0.7,2.2,5.7,2.2h0.6
					c7.2,0,7.7-0.5,7.7-1.9v-0.4c0-1.4-0.6-1.8-3.7-1.8h-6.7v-5.1h6.8c2.6,0,3.1-0.5,3.1-1.9V19c0-1.5-0.5-1.8-7.2-1.8h-0.6
					c-5.2,0-5.7,0.5-5.7,2.1V20h-7.5v-0.9c0-6.3,1.8-7.6,13-7.6h1c13.1,0,14.9,1.5,14.9,6.4v0.3c0,3.2-0.7,4.5-3.2,5.3v0.1
					c2.4,0.6,3.8,1.9,3.8,5.1V29.5z"/>
			</g>
			<g>
				<path fill="#FFFFFF" d="M183.9,29.5c0,5.1-2.2,6.6-15.5,6.6h-1c-11.3,0-13.1-1.5-13.1-7.6v-1.1h7.6v0.7c0,1.7,0.7,2.2,5.7,2.2
					h0.6c7.2,0,7.7-0.5,7.7-1.9v-0.4c0-1.4-0.6-1.8-3.7-1.8h-6.7v-5.1h6.8c2.6,0,3.1-0.5,3.1-1.9V19c0-1.5-0.5-1.8-7.2-1.8h-0.6
					c-5.2,0-5.7,0.5-5.7,2.1V20h-7.5v-0.9c0-6.3,1.8-7.6,13-7.6h1c13.1,0,14.9,1.5,14.9,6.4v0.3c0,3.2-0.7,4.5-3.2,5.3v0.1
					c2.4,0.6,3.8,1.9,3.8,5.1V29.5z"/>
			</g>
		</g>
	</g>
	<g>
		<path fill="#FFFFFF" d="M234.9,47.9H18.5C8.3,47.9,0,39.6,0,29.4V18.5C0,8.3,8.3,0,18.5,0h216.4c10.2,0,18.5,8.3,18.5,18.5v10.9
			C253.4,39.6,245.1,47.9,234.9,47.9z M18.5,2.9c-8.6,0-15.6,7-15.6,15.6v10.9C2.9,38,9.9,45,18.5,45h216.4c8.6,0,15.6-7,15.6-15.6
			V18.5c0-8.6-7-15.6-15.6-15.6H18.5z"/>
	</g>
</g>
</svg>
