<?xml version="1.0" encoding="utf-8"?>
<!-- Generator: Adobe Illustrator 18.1.0, SVG Export Plug-In . SVG Version: 6.00 Build 0)  -->
<svg version="1.0" id="Layer_1" xmlns="http://www.w3.org/2000/svg" xmlns:xlink="http://www.w3.org/1999/xlink" x="0px" y="0px"
	 viewBox="0 0 18.4 229.6" enable-background="new 0 0 18.4 229.6" xml:space="preserve">
<path fill="#FFFFFF" d="M15.1,15l-1.3-3.3c0.6-0.5,1-1.1,1.3-1.8C15.4,9,15.6,8.1,15.6,7c0-2.2-0.5-3.3-1.6-3.3
	c-0.5,0-0.8,0.2-1,0.6c-0.2,0.4-0.4,0.9-0.5,1.6l-0.8,4.4c-0.3,1.6-0.8,2.8-1.5,3.6c-0.7,0.8-1.7,1.2-2.8,1.2c-1.1,0-2.1-0.4-3-1.2
	c-1.4-1.3-2.1-3.5-2.1-6.7c0-2.5,0.5-4.5,1.6-6c0.7-0.9,1.6-1.7,2.8-2.3l0.9,3.5C6,3.2,5.2,4.9,5.2,7.4c0,1.2,0.2,2.2,0.6,2.9
	c0.3,0.6,0.8,1,1.4,1c0.4,0,0.7-0.2,0.9-0.5c0.2-0.3,0.4-0.8,0.5-1.6L9.4,5c0.2-1.4,0.6-2.4,1-3.1C11.2,0.6,12.3,0,13.7,0
	c0.7,0,1.4,0.2,2,0.5c0.6,0.3,1.1,0.8,1.4,1.4c0.9,1.4,1.3,3.2,1.3,5.5C18.4,10.8,17.3,13.4,15.1,15z"/>
<path fill="#FFFFFF" d="M17.9,32h-2.7V21.5h-3.3v10.2H9.1V21.5H5.6v10.9H2.9V17.6h15V32z"/>
<path fill="#FFFFFF" d="M13.5,53.1L13,48.9c0.9-0.5,1.5-1.2,1.9-1.9c0.4-0.8,0.6-1.7,0.6-2.8c0-1.6-0.4-2.9-1.3-3.9
	c-0.9-1.1-2.2-1.6-3.8-1.6c-1.7,0-3,0.6-4,1.7c-0.8,1-1.3,2.3-1.3,3.9c0,1.6,0.4,2.8,1.2,3.8c0.4,0.5,0.9,0.9,1.6,1.3v4
	c-0.8-0.3-1.5-0.6-2-1s-1-0.8-1.5-1.4c-0.7-0.9-1.2-1.8-1.5-2.9c-0.3-1.1-0.5-2.4-0.5-3.9c0-2.9,0.7-5.2,2.1-6.9
	c1.5-1.8,3.5-2.7,6-2.7c1.2,0,2.3,0.2,3.3,0.7c1,0.4,1.8,1.1,2.5,1.9c1.4,1.7,2.1,4,2.1,6.9C18.4,48.5,16.8,51.5,13.5,53.1z"/>
<path fill="#FFFFFF" d="M17.9,69.1H15v-5.7H2.9v-3.9H15v-5.7h2.9V69.1z"/>
<path fill="#FFFFFF" d="M17.9,74.6h-15v-3.9h15V74.6z"/>
<path fill="#FFFFFF" d="M18.4,87c0,1.4-0.2,2.7-0.6,3.8c-0.4,1.2-0.9,2.2-1.6,3c-0.7,0.8-1.6,1.5-2.6,2c-1,0.4-2,0.6-3.2,0.6
	c-1.6,0-3-0.4-4.3-1.3c-1.3-0.9-2.3-2.2-2.9-3.8c-0.5-1.3-0.7-2.8-0.7-4.5c0-2.9,0.7-5.3,2.2-7c0.7-0.8,1.6-1.5,2.6-2
	c1-0.4,2-0.6,3.1-0.6c1.6,0,3.1,0.4,4.3,1.3c1.3,0.9,2.3,2.2,2.9,3.8C18.1,83.7,18.4,85.2,18.4,87z M15.6,86.8
	c0-1.7-0.5-3.1-1.5-4.1c-0.9-0.9-2.1-1.4-3.7-1.4c-1.5,0-2.7,0.5-3.7,1.4c-1,1-1.5,2.4-1.5,4.2S5.7,90,6.7,91
	c0.9,0.9,2.1,1.4,3.6,1.4c1.5,0,2.8-0.5,3.7-1.4C15.1,90,15.6,88.6,15.6,86.8z"/>
<path fill="#FFFFFF" d="M17.9,115.9h-15v-3.6l10.3-9.7H2.9v-3.6h15v3.6l-10.2,9.6h10.2V115.9z"/>
<path fill="#FFFFFF" d="M11.7,197.5H9V132h2.7V197.5z"/>
<path fill="#FFFFFF" d="M2.9,213.6h15v8.5c0,1.5,0,2.5-0.1,3.1c-0.2,1.3-0.6,2.3-1.4,2.9c-0.6,0.5-1.3,0.7-2.2,0.7
	c-1,0-1.8-0.3-2.3-0.9c-0.3-0.4-0.6-0.9-0.8-1.6c-0.3,0.9-0.6,1.6-1,2.1c-0.7,0.8-1.6,1.3-2.9,1.3c-1.4,0-2.5-0.5-3.3-1.4
	c-0.4-0.5-0.7-1.1-0.9-1.9c-0.1-0.4-0.1-1-0.1-1.7V213.6z M5.6,217.5v5.4c0,0.7,0,1.3,0.1,1.6c0.2,0.8,0.8,1.2,1.8,1.2
	c1.2,0,1.8-0.7,1.8-2v-6.2H5.6z M12,217.5v5.8c0,1.2,0.5,1.7,1.6,1.7c0.5,0,0.9-0.1,1.2-0.4c0.3-0.3,0.4-0.8,0.4-1.6v-5.6H12z"/>
</svg>
