<?xml version="1.0" encoding="utf-8"?>
<!-- Generator: Adobe Illustrator 18.1.0, SVG Export Plug-In . SVG Version: 6.00 Build 0)  -->
<svg version="1.0" id="Layer_1" xmlns="http://www.w3.org/2000/svg" xmlns:xlink="http://www.w3.org/1999/xlink" x="0px" y="0px"
	 viewBox="0 0 633.8 474.2" enable-background="new 0 0 633.8 474.2" xml:space="preserve">
<g>
	<g id="axMHrZ_4_">
		
			<image overflow="visible" width="2209" height="1340" id="axMHrZ_5_" xlink:href="851131DC2F8D8F86.png"  transform="matrix(0.2869 0 0 0.2869 0 0)">
		</image>
	</g>
	<g>
		<path fill="#FFFFFF" d="M1.5,416.9h14c2.5,0,4.8,0.5,6.9,1.6c2.1,1.1,3.7,2.5,4.9,4.5c1.2,1.9,1.8,4.1,1.8,6.5
			c0,2.5-0.6,4.6-1.8,6.6s-2.8,3.4-4.9,4.5c-2.1,1.1-4.4,1.6-6.9,1.6H9v14.7H1.5V416.9z M15.8,435c1.9,0,3.3-0.5,4.4-1.6
			c1.1-1.1,1.6-2.4,1.6-3.9c0-1.5-0.5-2.8-1.6-3.9s-2.5-1.6-4.4-1.6H9v11H15.8z"/>
		<path fill="#FFFFFF" d="M35.5,455.7c-2.3-1.3-4.1-3.1-5.4-5.4c-1.3-2.3-1.9-4.9-1.9-7.7c0-2.8,0.6-5.4,1.9-7.7
			c1.3-2.3,3.1-4.1,5.4-5.4c2.3-1.3,4.9-2,7.9-2c2.9,0,5.5,0.7,7.8,2c2.3,1.3,4.1,3.1,5.4,5.4c1.3,2.3,1.9,4.9,1.9,7.7
			c0,2.9-0.6,5.4-1.9,7.7c-1.3,2.3-3.1,4.1-5.4,5.4c-2.3,1.3-4.9,2-7.8,2C40.4,457.6,37.8,457,35.5,455.7z M47.3,449.9
			c1.2-0.7,2.1-1.6,2.8-2.9c0.7-1.3,1.1-2.7,1.1-4.5c0-1.7-0.4-3.1-1.1-4.4c-0.7-1.3-1.7-2.2-2.8-2.9c-1.2-0.7-2.5-1-3.9-1
			c-1.4,0-2.7,0.3-3.9,1c-1.2,0.7-2.1,1.6-2.9,2.9s-1.1,2.7-1.1,4.4c0,1.7,0.4,3.1,1.1,4.4s1.7,2.3,2.9,2.9c1.2,0.7,2.5,1,3.9,1
			C44.8,450.9,46.1,450.6,47.3,449.9z"/>
		<path fill="#FFFFFF" d="M57.5,428.3h8.2l4.9,18.4H71l5.7-18.4h7.5l5.7,18.4h0.4l4.9-18.4h8.1l-9.1,28.4h-7.9l-5.8-18.4h-0.4
			l-5.7,18.4h-7.8L57.5,428.3z"/>
		<path fill="#FFFFFF" d="M109.5,455.7c-2.3-1.3-4-3.1-5.3-5.4c-1.3-2.3-1.9-4.9-1.9-7.7c0-2.7,0.6-5.2,1.9-7.5
			c1.3-2.3,3-4.2,5.2-5.5c2.2-1.4,4.7-2.1,7.5-2.1c2.9,0,5.5,0.6,7.6,1.9c2.1,1.3,3.7,3,4.8,5.2c1.1,2.2,1.6,4.6,1.6,7.3
			c0,0.9-0.1,1.7-0.2,2.5h-21.3c0.4,2.3,1.3,4,2.7,5.2c1.4,1.2,3.1,1.8,5.2,1.8c1.7,0,3.1-0.4,4.3-1.1c1.2-0.7,2.2-1.7,2.9-2.9
			l5.9,2.9c-2.9,5.1-7.3,7.6-13.2,7.6C114.3,457.6,111.7,457,109.5,455.7z M123.8,439.1c-0.1-0.9-0.4-1.8-1-2.6
			c-0.6-0.9-1.4-1.6-2.4-2.2c-1-0.6-2.2-0.9-3.6-0.9c-1.7,0-3.2,0.5-4.5,1.5c-1.2,1-2.1,2.4-2.7,4.2H123.8z"/>
		<path fill="#FFFFFF" d="M133.7,428.3h6.9v3.8h0.4c0.7-1.3,1.8-2.4,3.3-3.3c1.5-0.9,3.1-1.3,4.9-1.3c1.3,0,2.5,0.2,3.6,0.6v7.3
			c-1-0.4-1.8-0.6-2.5-0.8c-0.7-0.2-1.4-0.3-2.2-0.3c-2.2,0-3.9,0.8-5.1,2.3c-1.3,1.6-1.9,3.5-1.9,5.9v14.2h-7.3V428.3z"/>
		<path fill="#FFFFFF" d="M158.7,455.7c-2.3-1.3-4-3.1-5.3-5.4c-1.3-2.3-1.9-4.9-1.9-7.7c0-2.7,0.6-5.2,1.9-7.5
			c1.3-2.3,3-4.2,5.2-5.5c2.2-1.4,4.7-2.1,7.5-2.1c2.9,0,5.5,0.6,7.6,1.9c2.1,1.3,3.7,3,4.8,5.2c1.1,2.2,1.6,4.6,1.6,7.3
			c0,0.9-0.1,1.7-0.2,2.5h-21.3c0.4,2.3,1.3,4,2.7,5.2c1.4,1.2,3.1,1.8,5.2,1.8c1.7,0,3.1-0.4,4.3-1.1c1.2-0.7,2.2-1.7,2.9-2.9
			l5.9,2.9c-2.9,5.1-7.3,7.6-13.2,7.6C163.5,457.6,161,457,158.7,455.7z M173.1,439.1c-0.1-0.9-0.4-1.8-1-2.6
			c-0.6-0.9-1.4-1.6-2.4-2.2c-1-0.6-2.2-0.9-3.6-0.9c-1.7,0-3.2,0.5-4.5,1.5c-1.2,1-2.1,2.4-2.7,4.2H173.1z"/>
		<path fill="#FFFFFF" d="M188.4,455.7c-2.1-1.3-3.8-3.1-5-5.3c-1.2-2.3-1.8-4.9-1.8-7.8c0-2.9,0.6-5.5,1.8-7.8
			c1.2-2.3,2.9-4.1,5-5.4c2.1-1.3,4.4-1.9,7-1.9c1.9,0,3.6,0.4,5.1,1.3c1.5,0.8,2.6,1.9,3.4,3.1h0.4l-0.4-4v-10.9h7.2v39.9h-6.8
			v-3.4H204c-0.7,1.2-1.9,2.2-3.4,3.1c-1.5,0.8-3.2,1.2-5.2,1.2C192.9,457.6,190.5,457,188.4,455.7z M200.5,449.8
			c1.2-0.7,2.1-1.7,2.8-3c0.7-1.3,1.1-2.7,1.1-4.3c0-1.6-0.4-3.1-1.1-4.3c-0.7-1.3-1.7-2.2-2.8-2.9c-1.2-0.7-2.5-1-3.8-1
			c-1.3,0-2.6,0.3-3.8,1c-1.2,0.7-2.1,1.7-2.8,2.9c-0.7,1.3-1.1,2.7-1.1,4.3c0,1.6,0.4,3.1,1.1,4.3c0.7,1.3,1.7,2.2,2.8,3
			c1.2,0.7,2.5,1.1,3.8,1.1C198,450.9,199.3,450.5,200.5,449.8z"/>
		<path fill="#FFFFFF" d="M236.5,456.4c-1.5-0.8-2.6-1.8-3.4-3.1h-0.4v3.4h-6.9v-39.9h7.3v10.9l-0.4,4h0.4c0.8-1.2,1.9-2.3,3.4-3.1
			c1.5-0.8,3.2-1.3,5.1-1.3c2.6,0,4.9,0.6,7,1.9c2.1,1.3,3.7,3.1,4.9,5.4c1.2,2.3,1.8,4.9,1.8,7.8c0,2.9-0.6,5.5-1.8,7.8
			c-1.2,2.3-2.8,4.1-4.9,5.3c-2.1,1.3-4.4,1.9-7,1.9C239.7,457.6,238,457.2,236.5,456.4z M244.2,449.8c1.2-0.7,2.1-1.7,2.8-3
			c0.7-1.3,1.1-2.7,1.1-4.3c0-1.6-0.4-3.1-1.1-4.3c-0.7-1.3-1.7-2.2-2.8-2.9c-1.2-0.7-2.5-1-3.8-1c-1.3,0-2.6,0.3-3.8,1
			c-1.2,0.7-2.1,1.7-2.8,2.9c-0.7,1.3-1.1,2.7-1.1,4.3c0,1.6,0.4,3.1,1.1,4.3s1.7,2.2,2.8,3s2.5,1.1,3.8,1.1
			C241.8,450.9,243,450.5,244.2,449.8z"/>
		<path fill="#FFFFFF" d="M266,455.4l-12-27.1h8.3l7.4,17.7h0.4l7.1-17.7h8.1l-17.6,40.5h-7.9L266,455.4z"/>
		<path fill="#FFFFFF" d="M305.2,454.9c-3.2-1.8-5.8-4.3-7.7-7.5c-1.9-3.2-2.8-6.7-2.8-10.7s0.9-7.5,2.8-10.7
			c1.9-3.2,4.4-5.7,7.7-7.5c3.2-1.8,6.7-2.7,10.6-2.7c3.1,0,6,0.5,8.6,1.6c2.6,1.1,4.8,2.6,6.7,4.7l-5.2,5.1
			c-1.3-1.4-2.8-2.5-4.4-3.2c-1.6-0.7-3.5-1.1-5.7-1.1c-2.5,0-4.7,0.6-6.7,1.7c-2,1.1-3.7,2.7-4.9,4.8s-1.8,4.5-1.8,7.2
			c0,2.7,0.6,5.1,1.8,7.2c1.2,2.1,2.9,3.7,4.9,4.8c2.1,1.1,4.3,1.7,6.8,1.7c3.7,0,6.8-1.1,9.1-3.3c0.7-0.7,1.4-1.5,2-2.6
			c0.6-1,1-2.2,1.2-3.4h-12.5v-6.4h19.6c0.3,1,0.4,2.2,0.4,3.5c0,2.6-0.4,5.1-1.2,7.4c-0.8,2.3-2,4.3-3.6,6
			c-1.8,1.9-3.9,3.4-6.5,4.4c-2.5,1-5.3,1.5-8.5,1.5C311.9,457.6,308.4,456.7,305.2,454.9z"/>
		<path fill="#FFFFFF" d="M344.4,455.7c-2.3-1.3-4.1-3.1-5.4-5.4c-1.3-2.3-1.9-4.9-1.9-7.7c0-2.8,0.6-5.4,1.9-7.7
			c1.3-2.3,3.1-4.1,5.4-5.4c2.3-1.3,4.9-2,7.9-2c2.9,0,5.5,0.7,7.8,2c2.3,1.3,4.1,3.1,5.4,5.4c1.3,2.3,1.9,4.9,1.9,7.7
			c0,2.9-0.6,5.4-1.9,7.7c-1.3,2.3-3.1,4.1-5.4,5.4c-2.3,1.3-4.9,2-7.8,2C349.3,457.6,346.7,457,344.4,455.7z M356.1,449.9
			c1.2-0.7,2.1-1.6,2.8-2.9c0.7-1.3,1.1-2.7,1.1-4.5c0-1.7-0.4-3.1-1.1-4.4c-0.7-1.3-1.7-2.2-2.8-2.9c-1.2-0.7-2.5-1-3.9-1
			c-1.4,0-2.7,0.3-3.9,1c-1.2,0.7-2.1,1.6-2.9,2.9s-1.1,2.7-1.1,4.4c0,1.7,0.4,3.1,1.1,4.4s1.7,2.3,2.9,2.9c1.2,0.7,2.5,1,3.9,1
			C353.6,450.9,354.9,450.6,356.1,449.9z"/>
		<path fill="#FFFFFF" d="M375.8,455.7c-2.3-1.3-4.1-3.1-5.4-5.4c-1.3-2.3-1.9-4.9-1.9-7.7c0-2.8,0.6-5.4,1.9-7.7
			c1.3-2.3,3.1-4.1,5.4-5.4c2.3-1.3,4.9-2,7.9-2c2.9,0,5.5,0.7,7.8,2c2.3,1.3,4.1,3.1,5.4,5.4c1.3,2.3,1.9,4.9,1.9,7.7
			c0,2.9-0.6,5.4-1.9,7.7c-1.3,2.3-3.1,4.1-5.4,5.4c-2.3,1.3-4.9,2-7.8,2C380.8,457.6,378.1,457,375.8,455.7z M387.6,449.9
			c1.2-0.7,2.1-1.6,2.8-2.9c0.7-1.3,1.1-2.7,1.1-4.5c0-1.7-0.4-3.1-1.1-4.4c-0.7-1.3-1.7-2.2-2.8-2.9c-1.2-0.7-2.5-1-3.9-1
			c-1.4,0-2.7,0.3-3.9,1c-1.2,0.7-2.1,1.6-2.9,2.9s-1.1,2.7-1.1,4.4c0,1.7,0.4,3.1,1.1,4.4s1.7,2.3,2.9,2.9c1.2,0.7,2.5,1,3.9,1
			C385.1,450.9,386.4,450.6,387.6,449.9z"/>
		<path fill="#FFFFFF" d="M405.7,467.3c-2.4-1.6-4-3.6-4.8-5.8l6.9-2.8c0.6,1.4,1.5,2.5,2.7,3.3c1.2,0.8,2.6,1.2,4.2,1.2
			c2.3,0,4.1-0.7,5.5-2.1c1.4-1.4,2-3.4,2-6v-2.2h-0.4c-0.9,1.3-2.1,2.2-3.5,2.9c-1.4,0.7-3.1,1-5,1c-2.3,0-4.5-0.6-6.5-1.8
			c-2-1.2-3.6-2.9-4.9-5.1c-1.2-2.2-1.8-4.8-1.8-7.7c0-2.9,0.6-5.5,1.8-7.7s2.9-3.9,4.9-5.1c2-1.2,4.2-1.8,6.5-1.8
			c1.9,0,3.5,0.3,5,1c1.4,0.7,2.6,1.6,3.5,2.9h0.4v-3h7v26.5c0,3-0.6,5.7-1.8,7.9c-1.2,2.2-2.9,3.9-5.1,5.2s-4.8,1.8-7.7,1.8
			C411.1,469.7,408.1,468.9,405.7,467.3z M420,448c1.4-1.4,2.2-3.4,2.2-5.9c0-2.6-0.7-4.5-2.1-5.9c-1.4-1.4-3.2-2.1-5.3-2.1
			c-2.1,0-3.8,0.7-5.3,2.1c-1.4,1.4-2.2,3.4-2.2,5.9c0,2.5,0.7,4.5,2.2,5.9c1.4,1.4,3.2,2.1,5.3,2.1
			C416.8,450.1,418.6,449.4,420,448z"/>
		<path fill="#FFFFFF" d="M433.6,416.9h7.3v39.9h-7.3V416.9z"/>
		<path fill="#FFFFFF" d="M450.7,455.7c-2.3-1.3-4-3.1-5.3-5.4c-1.3-2.3-1.9-4.9-1.9-7.7c0-2.7,0.6-5.2,1.9-7.5
			c1.3-2.3,3-4.2,5.2-5.5c2.2-1.4,4.7-2.1,7.5-2.1c2.9,0,5.5,0.6,7.6,1.9c2.1,1.3,3.7,3,4.8,5.2c1.1,2.2,1.6,4.6,1.6,7.3
			c0,0.9-0.1,1.7-0.2,2.5h-21.3c0.4,2.3,1.3,4,2.7,5.2c1.4,1.2,3.1,1.8,5.2,1.8c1.7,0,3.1-0.4,4.3-1.1c1.2-0.7,2.2-1.7,2.9-2.9
			l5.9,2.9c-2.9,5.1-7.3,7.6-13.2,7.6C455.5,457.6,452.9,457,450.7,455.7z M465,439.1c-0.1-0.9-0.4-1.8-1-2.6
			c-0.6-0.9-1.4-1.6-2.4-2.2c-1-0.6-2.2-0.9-3.6-0.9c-1.7,0-3.2,0.5-4.5,1.5c-1.2,1-2.1,2.4-2.7,4.2H465z"/>
		<path fill="#FFFFFF" d="M486.2,416.9h14c2.5,0,4.8,0.5,6.9,1.6c2.1,1.1,3.7,2.5,4.9,4.5c1.2,1.9,1.8,4.1,1.8,6.5
			c0,2.5-0.6,4.6-1.8,6.6c-1.2,1.9-2.8,3.4-4.9,4.5c-2.1,1.1-4.4,1.6-6.9,1.6h-6.5v14.7h-7.5V416.9z M500.4,435
			c1.9,0,3.3-0.5,4.4-1.6c1.1-1.1,1.6-2.4,1.6-3.9c0-1.5-0.5-2.8-1.6-3.9s-2.5-1.6-4.4-1.6h-6.7v11H500.4z"/>
		<path fill="#FFFFFF" d="M517.1,423.8c-0.9-0.9-1.4-2-1.4-3.3c0-1.3,0.5-2.4,1.4-3.3c0.9-0.9,2-1.4,3.3-1.4c1.3,0,2.4,0.5,3.3,1.4
			c0.9,0.9,1.4,2,1.4,3.3c0,1.3-0.5,2.4-1.4,3.3c-0.9,0.9-2,1.4-3.3,1.4C519.2,425.2,518.1,424.7,517.1,423.8z M516.8,428.3h7.3
			v28.4h-7.3V428.3z"/>
		<path fill="#FFFFFF" d="M536,442.3l-9.8-14h8.6l5.4,8.1h0.3l5.1-8.1h8.9l-10,14l10,14.4h-8.6l-5.5-8.3h-0.3l-5.3,8.3h-8.6
			L536,442.3z"/>
		<path fill="#FFFFFF" d="M560.9,455.7c-2.3-1.3-4-3.1-5.3-5.4c-1.3-2.3-1.9-4.9-1.9-7.7c0-2.7,0.6-5.2,1.9-7.5
			c1.3-2.3,3-4.2,5.2-5.5c2.2-1.4,4.7-2.1,7.5-2.1c2.9,0,5.5,0.6,7.6,1.9c2.1,1.3,3.7,3,4.8,5.2c1.1,2.2,1.6,4.6,1.6,7.3
			c0,0.9-0.1,1.7-0.2,2.5h-21.3c0.4,2.3,1.3,4,2.7,5.2c1.4,1.2,3.1,1.8,5.2,1.8c1.7,0,3.1-0.4,4.3-1.1c1.2-0.7,2.2-1.7,2.9-2.9
			l5.9,2.9c-2.9,5.1-7.3,7.6-13.2,7.6C565.7,457.6,563.1,457,560.9,455.7z M575.3,439.1c-0.1-0.9-0.4-1.8-1-2.6
			c-0.6-0.9-1.4-1.6-2.4-2.2c-1-0.6-2.2-0.9-3.6-0.9c-1.7,0-3.2,0.5-4.5,1.5c-1.2,1-2.1,2.4-2.7,4.2H575.3z"/>
		<path fill="#FFFFFF" d="M585.1,416.9h7.3v39.9h-7.3V416.9z"/>
		<path fill="#FFFFFF" d="M610.8,455.1c-2.5-1.7-4.2-4.2-5.1-7.5l6.9-2.7c0.4,1.8,1.2,3.2,2.4,4.2c1.2,1,2.6,1.5,4.3,1.5
			c1.6,0,3-0.5,4.2-1.4c1.2-1,1.8-2.2,1.8-3.7c0-1.6-0.6-2.9-1.9-3.8s-2.9-1.4-5-1.4h-3.3v-6.6h3c1.6,0,3-0.4,4.2-1.2
			c1.1-0.8,1.7-2,1.7-3.6c0-1.3-0.5-2.3-1.4-3.1c-0.9-0.8-2.1-1.2-3.6-1.2c-1.5,0-2.7,0.4-3.7,1.2c-0.9,0.8-1.6,1.8-2,3.1l-6.6-2.7
			c0.8-2.2,2.2-4.2,4.3-5.8c2.1-1.6,4.8-2.5,8-2.5c2.4,0,4.5,0.4,6.4,1.3s3.3,2.1,4.4,3.6c1,1.5,1.6,3.3,1.6,5.2
			c0,2-0.5,3.8-1.4,5.2s-2.1,2.5-3.4,3.2v0.4c1.9,0.7,3.4,1.9,4.5,3.5c1.2,1.6,1.7,3.5,1.7,5.8c0,2.2-0.6,4.2-1.7,5.9
			c-1.1,1.7-2.7,3.1-4.7,4.1s-4.4,1.5-7,1.5C616.2,457.6,613.3,456.8,610.8,455.1z"/>
	</g>
</g>
</svg>
