<?xml version="1.0" encoding="utf-8"?>
<!-- Generator: Adobe Illustrator 22.1.0, SVG Export Plug-In . SVG Version: 6.00 Build 0)  -->
<svg version="1.1" id="Layer_1" xmlns="http://www.w3.org/2000/svg" xmlns:xlink="http://www.w3.org/1999/xlink" x="0px" y="0px"
	 viewBox="0 0 706.5 38.2" style="enable-background:new 0 0 706.5 38.2;" xml:space="preserve">
<style type="text/css">
	.st0{fill:#FFFFFF;}
	.st1{enable-background:new    ;}
	.st2{fill:#0E0E0E;}
</style>
<polygon class="st0" points="522.5,19.1 511.2,7.8 509.8,9.2 518.7,18.1 0,18.1 0,20.1 518.7,20.1 509.8,29 511.2,30.4 522.5,19.1 
	"/>
<g class="st1">
	<path class="st0" d="M569.9,12.8v13h-3.4v-5.5h-7.9v5.5h-3.4v-13h3.4v5h7.9v-5H569.9z"/>
	<path class="st0" d="M581.9,18.9l6,6.9h-4.4l-3.9-4.8l-3.9,4.8h-4.4l6.1-6.9l-5.4-6.1h4.4l3.2,4.2l3.1-4.2h4.3L581.9,18.9z"/>
	<path class="st0" d="M593.8,19.7V22h-5.1v-2.3H593.8z"/>
	<path class="st0" d="M603.5,13.2c1,0,2,0.2,2.8,0.5s1.6,0.8,2.1,1.4c0.9,1.1,1.4,2.6,1.4,4.6c0,1.9-0.5,3.5-1.4,4.5
		c-1.1,1.3-2.8,2-5.1,2c-2.2,0-3.9-0.7-5.1-2c-0.9-1.1-1.4-2.6-1.4-4.5c0-2,0.5-3.5,1.4-4.6C599.5,13.8,601.2,13.2,603.5,13.2z
		 M603.4,15.5c-1,0-1.8,0.3-2.4,1c-0.5,0.7-0.8,1.7-0.8,3.2c0,2.8,1.1,4.2,3.2,4.2c2.2,0,3.2-1.4,3.2-4.2
		C606.7,16.9,605.6,15.5,603.4,15.5z"/>
	<path class="st0" d="M618.2,13.2c1,0,2,0.2,2.8,0.5s1.6,0.8,2.1,1.4c0.9,1.1,1.4,2.6,1.4,4.6c0,1.9-0.5,3.5-1.4,4.5
		c-1.1,1.3-2.8,2-5.1,2c-2.2,0-3.9-0.7-5.1-2c-0.9-1.1-1.4-2.6-1.4-4.5c0-2,0.5-3.5,1.4-4.6C614.1,13.8,615.9,13.2,618.2,13.2z
		 M618,15.5c-1,0-1.8,0.3-2.4,1c-0.5,0.7-0.8,1.7-0.8,3.2c0,2.8,1.1,4.2,3.2,4.2c2.2,0,3.2-1.4,3.2-4.2
		C621.3,16.9,620.2,15.5,618,15.5z"/>
	<path class="st0" d="M633.5,13.6v12.2h-3.2v-9.1c-0.5,0.3-1,0.5-1.4,0.6c-0.5,0.1-1,0.2-1.6,0.2v-2.2c1.3-0.2,2.4-0.7,3.3-1.7
		H633.5z"/>
</g>
<g>
	<circle class="st0" cx="687.4" cy="19.1" r="19.1"/>
	<g>
		<path class="st2" d="M693.1,24.8h-11.5l-1.8,3.9h-6.3l10.7-21.9h6.2l10.9,21.9h-6.4L693.1,24.8z M691.3,20.9l-4-8.4l-3.9,8.4
			H691.3z"/>
	</g>
</g>
</svg>
