<?xml version="1.0" encoding="utf-8"?>
<!-- Generator: Adobe Illustrator 18.1.0, SVG Export Plug-In . SVG Version: 6.00 Build 0)  -->
<svg version="1.0" id="Layer_1" xmlns="http://www.w3.org/2000/svg" xmlns:xlink="http://www.w3.org/1999/xlink" x="0px" y="0px"
	 viewBox="0 0 91.5 20.7" enable-background="new 0 0 91.5 20.7" xml:space="preserve">
<g>
	<polyline fill="#FFFFFF" points="91.5,20.8 0,20.8 0,0 91.5,0 	"/>
</g>
<g>
	<path fill="#0E0E0E" d="M21.7,3.9v13h-3.4v-5.5h-7.9v5.5H7v-13h3.4v5h7.9v-5H21.7z"/>
	<path fill="#0E0E0E" d="M33.6,10l6,6.9h-4.4l-3.9-4.8l-3.9,4.8h-4.4l6.1-6.9l-5.4-6.1h4.4L31.5,8l3.1-4.2h4.3L33.6,10z"/>
	<path fill="#0E0E0E" d="M44.4,10.8v2.3h-5.1v-2.3H44.4z"/>
	<path fill="#0E0E0E" d="M51.8,4.3c1,0,2,0.2,2.8,0.5c0.9,0.3,1.6,0.8,2.1,1.4c0.9,1.1,1.4,2.6,1.4,4.6c0,1.9-0.5,3.5-1.4,4.5
		c-1.1,1.3-2.8,2-5.1,2c-2.2,0-3.9-0.7-5.1-2c-0.9-1.1-1.4-2.6-1.4-4.5c0-2,0.5-3.5,1.4-4.6C47.8,4.9,49.5,4.3,51.8,4.3z M51.6,6.6
		c-1,0-1.8,0.3-2.4,1c-0.5,0.7-0.8,1.7-0.8,3.2c0,2.8,1.1,4.2,3.2,4.2c2.2,0,3.2-1.4,3.2-4.2C54.9,8,53.8,6.6,51.6,6.6z"/>
	<path fill="#0E0E0E" d="M66.4,4.3c1,0,2,0.2,2.8,0.5c0.9,0.3,1.6,0.8,2.1,1.4c0.9,1.1,1.4,2.6,1.4,4.6c0,1.9-0.5,3.5-1.4,4.5
		c-1.1,1.3-2.8,2-5.1,2c-2.2,0-3.9-0.7-5.1-2c-0.9-1.1-1.4-2.6-1.4-4.5c0-2,0.5-3.5,1.4-4.6C62.4,4.9,64.1,4.3,66.4,4.3z M66.3,6.6
		c-1,0-1.8,0.3-2.4,1c-0.5,0.7-0.8,1.7-0.8,3.2c0,2.8,1.1,4.2,3.2,4.2c2.2,0,3.2-1.4,3.2-4.2C69.5,8,68.5,6.6,66.3,6.6z"/>
	<path fill="#0E0E0E" d="M87.2,14.7v2.2H74.7c0-1.3,0.1-2.2,0.3-2.8c0.2-0.6,0.6-1,1.2-1.5c0.4-0.3,1-0.6,1.7-0.9l3.3-1.4
		c1-0.4,1.6-0.8,1.9-1.1c0.3-0.3,0.5-0.7,0.5-1.2c0-0.6-0.3-1-0.8-1.2c-0.4-0.2-1-0.3-1.8-0.3c-0.6,0-1.1,0.1-1.5,0.2
		c-0.5,0.2-0.9,0.5-1,1c-0.1,0.2-0.1,0.5-0.2,0.9h-3.2c0-0.7,0.1-1.3,0.3-1.8c0.6-1.8,2.5-2.7,5.6-2.7c1.8,0,3.1,0.3,4.2,0.8
		c1.2,0.6,1.8,1.6,1.8,3c0,1.2-0.4,2.1-1.3,2.8c-0.5,0.4-1,0.7-1.6,1c-0.5,0.2-1.1,0.5-1.7,0.8l-2.6,1.1c-0.5,0.2-0.9,0.5-1.2,0.8
		H87.2z"/>
</g>
</svg>
