<?xml version="1.0" encoding="utf-8"?>
<!-- Generator: Adobe Illustrator 18.1.0, SVG Export Plug-In . SVG Version: 6.00 Build 0)  -->
<svg version="1.0" id="Layer_1" xmlns="http://www.w3.org/2000/svg" xmlns:xlink="http://www.w3.org/1999/xlink" x="0px" y="0px"
	 viewBox="0 0 236.6 25" enable-background="new 0 0 236.6 25" xml:space="preserve">
<g>
</g>
<g>
</g>
<g>
	<rect x="0" y="0" fill="#FFFFFF" width="236.6" height="25"/>
</g>
<g>
	<path fill="#0E0E0E" d="M21.5,9.4l-3.7,0.4c-0.4-0.7-1-1.3-1.7-1.7c-0.7-0.4-1.5-0.5-2.5-0.5c-1.4,0-2.5,0.4-3.4,1.1
		c-1,0.8-1.4,1.9-1.4,3.3c0,1.4,0.5,2.6,1.5,3.4c0.9,0.7,2,1.1,3.4,1.1c1.3,0,2.4-0.3,3.3-1c0.4-0.3,0.8-0.8,1.1-1.4h3.5
		c-0.3,0.7-0.5,1.3-0.8,1.8c-0.3,0.5-0.7,0.9-1.3,1.3c-0.7,0.6-1.6,1.1-2.5,1.3C16,18.9,14.9,19,13.6,19c-2.5,0-4.5-0.6-6-1.8
		c-1.5-1.3-2.3-3-2.3-5.2c0-1,0.2-2,0.6-2.8C6.3,8.3,6.8,7.6,7.6,7c1.5-1.2,3.5-1.8,6-1.8C17.4,5.2,20.1,6.6,21.5,9.4z"/>
	<path fill="#0E0E0E" d="M35.8,12.5v2.3h-13v-2.3H35.8z"/>
	<path fill="#0E0E0E" d="M44.1,6c1,0,2,0.2,2.8,0.5c0.9,0.3,1.6,0.8,2.1,1.4c0.9,1.1,1.4,2.6,1.4,4.6c0,1.9-0.5,3.5-1.4,4.5
		c-1.1,1.3-2.8,2-5.1,2c-2.2,0-3.9-0.7-5.1-2c-0.9-1.1-1.4-2.6-1.4-4.5c0-2,0.5-3.5,1.4-4.6C40.1,6.6,41.8,6,44.1,6z M43.9,8.3
		c-1,0-1.8,0.3-2.4,1c-0.5,0.7-0.8,1.7-0.8,3.2c0,2.8,1.1,4.2,3.2,4.2c2.2,0,3.2-1.4,3.2-4.2C47.2,9.7,46.1,8.3,43.9,8.3z"/>
	<path fill="#0E0E0E" d="M58.7,6c1,0,2,0.2,2.8,0.5c0.9,0.3,1.6,0.8,2.1,1.4c0.9,1.1,1.4,2.6,1.4,4.6c0,1.9-0.5,3.5-1.4,4.5
		c-1.1,1.3-2.8,2-5.1,2c-2.2,0-3.9-0.7-5.1-2c-0.9-1.1-1.4-2.6-1.4-4.5c0-2,0.5-3.5,1.4-4.6C54.7,6.6,56.4,6,58.7,6z M58.6,8.3
		c-1,0-1.8,0.3-2.4,1c-0.5,0.7-0.8,1.7-0.8,3.2c0,2.8,1.1,4.2,3.2,4.2c2.2,0,3.2-1.4,3.2-4.2C61.9,9.7,60.8,8.3,58.6,8.3z"/>
	<path fill="#0E0E0E" d="M71.4,13.4v-2.1c0.5,0,0.9,0,1.2,0c1,0,1.7-0.1,2.2-0.2C75.6,11,76,10.5,76,9.8c0-1-0.9-1.5-2.7-1.5
		c-1.1,0-1.8,0.2-2.2,0.6c-0.2,0.2-0.4,0.5-0.5,1l-3.4-0.1c0.1-0.6,0.3-1.2,0.6-1.6C68,7.7,68.4,7.3,69,7c1-0.7,2.5-1,4.3-1
		c4,0,6,1.1,6,3.4c0,0.9-0.4,1.7-1.1,2.1c-0.4,0.3-1,0.5-1.7,0.7c0.9,0.1,1.5,0.3,2,0.6c0.4,0.2,0.7,0.6,0.9,1
		c0.2,0.4,0.3,0.7,0.3,1.2c0,1-0.4,1.8-1.2,2.5c-1.1,1-2.9,1.5-5.2,1.5c-2.2,0-3.8-0.5-4.9-1.5c-0.6-0.5-1-1.2-1.2-1.9
		c-0.1-0.2-0.1-0.5-0.2-0.9l3.3-0.2c0.1,0.7,0.3,1.3,0.7,1.6c0.5,0.4,1.3,0.6,2.4,0.6c0.8,0,1.4-0.1,2-0.3c0.8-0.3,1.1-0.8,1.1-1.5
		c0-0.5-0.2-0.9-0.7-1.2c-0.5-0.2-1.3-0.4-2.6-0.4C72.6,13.4,72.1,13.4,71.4,13.4z"/>
	<path fill="#0E0E0E" d="M94.5,12.5v2.3h-13v-2.3H94.5z"/>
	<path fill="#0E0E0E" d="M109.8,8l-2.9,1.1c-0.4-0.5-0.9-0.9-1.6-1.2s-1.5-0.4-2.4-0.4C101,7.6,100,8.1,100,9c0,0.4,0.2,0.7,0.5,0.9
		c0.3,0.2,0.8,0.3,1.4,0.4l3.8,0.7c1.4,0.3,2.5,0.7,3.1,1.3c0.7,0.6,1,1.4,1,2.4c0,1-0.3,1.8-1,2.6c-1.1,1.2-3.1,1.8-5.8,1.8
		c-2.2,0-3.9-0.5-5.2-1.4c-0.8-0.6-1.5-1.4-2-2.4l3.1-0.8c0.7,1.4,2.2,2.1,4.3,2.1c1,0,1.9-0.2,2.5-0.5c0.6-0.3,0.8-0.7,0.8-1.2
		c0-0.3-0.1-0.6-0.4-0.8c-0.3-0.2-0.7-0.3-1.4-0.5l-3.6-0.7c-1.2-0.2-2.1-0.5-2.7-0.9c-1.1-0.7-1.6-1.6-1.6-2.8
		c0-0.6,0.1-1.2,0.4-1.7c0.3-0.5,0.7-0.9,1.2-1.2c1.2-0.8,2.8-1.1,4.7-1.1C106.2,5.2,108.5,6.1,109.8,8z"/>
	<path fill="#0E0E0E" d="M115.5,5.6v13h-3.4v-13H115.5z"/>
	<path fill="#0E0E0E" d="M130.2,5.6v2.5h-4.9v10.5h-3.4V8.1h-4.9V5.6H130.2z"/>
	<path fill="#0E0E0E" d="M144.2,5.6v2.4H135v2.9h8.8v2.4H135v3h9.5v2.4h-12.9v-13H144.2z"/>
	<path fill="#0E0E0E" d="M164.6,5.6v2.5h-4.9v10.5h-3.4V8.1h-4.9V5.6H164.6z"/>
	<path fill="#0E0E0E" d="M180.7,5.6v13h-3.4v-5.5h-7.9v5.5H166v-13h3.4v5h7.9v-5H180.7z"/>
	<path fill="#0E0E0E" d="M186.9,13.4v5.2h-3.4v-13h9.1c1.1,0,1.9,0.1,2.5,0.2c0.9,0.3,1.7,0.8,2.1,1.6c0.3,0.6,0.5,1.3,0.5,2.1
		c0,2.1-1.2,3.3-3.5,3.7l3.9,5.4h-3.9l-3.4-5.2H186.9z M186.9,11.1h5.1c0.8,0,1.4-0.1,1.7-0.3c0.2-0.1,0.3-0.3,0.5-0.5
		c0.1-0.2,0.2-0.5,0.2-0.8c0-1-0.7-1.5-2-1.5h-5.5V11.1z"/>
	<path fill="#0E0E0E" d="M212.7,5.6v2.4h-9.1v2.9h8.8v2.4h-8.8v3h9.5v2.4h-12.9v-13H212.7z"/>
	<path fill="#0E0E0E" d="M228,5.6v2.4h-9.1v2.9h8.8v2.4h-8.8v3h9.5v2.4h-12.9v-13H228z"/>
</g>
</svg>
