<?xml version="1.0" encoding="utf-8"?>
<!-- Generator: Adobe Illustrator 22.1.0, SVG Export Plug-In . SVG Version: 6.00 Build 0)  -->
<svg version="1.1" id="Layer_1" xmlns="http://www.w3.org/2000/svg" xmlns:xlink="http://www.w3.org/1999/xlink" x="0px" y="0px"
	 viewBox="0 0 56.4 225" style="enable-background:new 0 0 56.4 225;" xml:space="preserve">
<style type="text/css">
	.st0{enable-background:new    ;}
	.st1{fill:none;stroke:#FFFFFF;stroke-width:0.5;stroke-miterlimit:10;}
	.st2{fill:#FFFFFF;}
</style>
<g class="st0">
	<g>
		<path class="st1" d="M32.2,33.2v-8.4h9V10h-9V1.5h23.9V10h-8.5v14.8h8.5v8.4C56.1,33.2,32.2,33.2,32.2,33.2z"/>
		<path class="st1" d="M32.2,72.4V61.7l8-7.2l-8-7.2V36.6l12,11.8l11.9-10.8v10.2l-7.7,6.7l7.7,6.6v10.2L44.2,60.5L32.2,72.4z"/>
		<path class="st1" d="M31.9,90.8c0-14.3,1.5-16.5,11.9-16.5h0.6c10.4,0,11.9,2.2,11.9,16.5v1.1c0,14.3-1.5,16.5-11.9,16.5h-0.6
			c-10.4,0-11.9-2.1-11.9-16.5V90.8z M38.3,91.7c0,7.8,0.5,8.2,5.8,8.2h0.3c5.3,0,5.8-0.4,5.8-8.2v-0.6c0-7.8-0.5-8.2-5.8-8.2h-0.3
			c-5.3,0-5.8,0.4-5.8,8.2V91.7z"/>
		<path class="st1" d="M31.9,129.1c0-12.4,1.9-15.3,9.2-15.3h15v8.4H43.3c-4.2,0-4.9,0.7-4.9,7v0.6c0,6.2,0.8,7,4.9,7h12.8v8.4h-15
			c-7.2,0-9.2-2.7-9.2-15.3V129.1z"/>
		<path class="st1" d="M31.9,166.1c0-14,1.4-15.6,7.1-15.6h0.9v8.5h-0.5c-1.4,0-1.8,0.8-1.8,6.5v1c0,6.4,0.4,6.8,1.9,6.8h0.2
			c1.4,0,1.9-0.5,1.9-7.3c0-13.8,1.4-15.3,7.4-15.3h0.4c5.3,0,7,2.2,7,13.5v1.5c0,13.5-1.4,15-7,15h-0.6v-8.2h0.3
			c1.2,0,1.7-0.4,1.7-5.7v-1.1c0-6.3-0.4-6.8-1.8-6.8h-0.2c-1.4,0-1.7,0.4-1.7,7.9c0,12.6-1.5,14.7-7.3,14.7h-0.5
			c-5.6,0-7.5-2.1-7.5-14.2L31.9,166.1L31.9,166.1z"/>
		<path class="st1" d="M32.2,214.5v-27.9h23.9V214h-5.8v-19.1h-3.4V213h-5.4v-18.1h-3.6v19.6C38,214.5,32.2,214.5,32.2,214.5z"/>
	</g>
</g>
<g class="st0">
	<g>
		<path class="st1" d="M0,26.2V1.5h23.9V10H6.4v16.3L0,26.2L0,26.2z"/>
		<path class="st1" d="M0,38.7v-8.4h23.9v8.4H0z"/>
		<path class="st1" d="M0,65.4v-9.9L23.9,42v9.4l-16.7,9v0.1l16.7,8.9v9.3L0,65.4z"/>
		<path class="st1" d="M0,110V82.2h23.9v27.4h-5.8V90.5h-3.4v18.1H9.3V90.5H5.7V110H0z"/>
	</g>
</g>
<g>
	<g>
		<g>
			<g>
				<g>
					<rect x="50.9" y="221.1" class="st2" width="4.4" height="0.3"/>
				</g>
			</g>
			<g>
				<g>
					<rect x="50.9" y="222.2" class="st2" width="4.4" height="0.3"/>
				</g>
			</g>
			<g>
				<g>
					<rect x="50.9" y="223.2" class="st2" width="4.4" height="0.3"/>
				</g>
			</g>
			<g>
				<g>
					<rect x="32.3" y="221.1" class="st2" width="4.4" height="0.3"/>
				</g>
			</g>
			<g>
				<g>
					<rect x="32.3" y="222.2" class="st2" width="4.4" height="0.3"/>
				</g>
			</g>
			<g>
				<g>
					<rect x="32.3" y="223.2" class="st2" width="4.4" height="0.3"/>
				</g>
			</g>
		</g>
		<g>
			<g>
				<path class="st2" d="M41.3,223.5h-1.1l-0.7-0.8l-0.7,0.8h-1.1l1.2-1.2l-1.1-1.2h1l0.7,0.8l0.7-0.8h1l-1.1,1.2L41.3,223.5z"/>
			</g>
			<g>
				<path class="st2" d="M42.5,223.5h-0.8v-0.7h0.8V223.5z"/>
			</g>
			<g>
				<path class="st2" d="M46,222.9c0,0.5-0.2,0.6-1.5,0.6h-0.1c-1.1,0-1.3-0.1-1.3-0.7v-0.1h0.7v0.1c0,0.2,0.1,0.2,0.6,0.2h0.1
					c0.7,0,0.8,0,0.8-0.2v0c0-0.1-0.1-0.2-0.4-0.2h-0.7v-0.5h0.7c0.3,0,0.3,0,0.3-0.2v0c0-0.1,0-0.2-0.7-0.2h-0.1
					c-0.5,0-0.6,0-0.6,0.2v0.1h-0.7v-0.1c0-0.6,0.2-0.7,1.3-0.7h0.1c1.3,0,1.5,0.1,1.5,0.6v0c0,0.3-0.1,0.4-0.3,0.5v0
					C45.9,222.4,46,222.5,46,222.9L46,222.9z"/>
			</g>
			<g>
				<path class="st2" d="M49.5,222.9c0,0.5-0.2,0.6-1.5,0.6h-0.1c-1.1,0-1.3-0.1-1.3-0.7v-0.1h0.7v0.1c0,0.2,0.1,0.2,0.6,0.2h0.1
					c0.7,0,0.8,0,0.8-0.2v0c0-0.1-0.1-0.2-0.4-0.2h-0.7v-0.5h0.7c0.3,0,0.3,0,0.3-0.2v0c0-0.1,0-0.2-0.7-0.2h-0.1
					c-0.5,0-0.6,0-0.6,0.2v0.1h-0.7v-0.1c0-0.6,0.2-0.7,1.3-0.7H48c1.3,0,1.5,0.1,1.5,0.6v0c0,0.3-0.1,0.4-0.3,0.5v0
					C49.3,222.4,49.5,222.5,49.5,222.9L49.5,222.9z"/>
			</g>
		</g>
	</g>
	<g>
		<path class="st2" d="M54.5,224.7H33.2c-1,0-1.8-0.8-1.8-1.8v-1.1c0-1,0.8-1.8,1.8-1.8h21.3c1,0,1.8,0.8,1.8,1.8v1.1
			C56.3,223.9,55.5,224.7,54.5,224.7z M33.2,220.2c-0.8,0-1.5,0.7-1.5,1.5v1.1c0,0.8,0.7,1.5,1.5,1.5h21.3c0.8,0,1.5-0.7,1.5-1.5
			v-1.1c0-0.8-0.7-1.5-1.5-1.5H33.2z"/>
	</g>
</g>
</svg>
