<?xml version="1.0" encoding="utf-8"?>
<!-- Generator: Adobe Illustrator 22.1.0, SVG Export Plug-In . SVG Version: 6.00 Build 0)  -->
<svg version="1.1" id="Layer_1" xmlns="http://www.w3.org/2000/svg" xmlns:xlink="http://www.w3.org/1999/xlink" x="0px" y="0px"
	 viewBox="0 0 1102 437" style="enable-background:new 0 0 1102 437;" xml:space="preserve">
<style type="text/css">
	.st0{fill:#0e0e0e; stroke:#fff; stroke-width:3}
</style>
<g>
	<g>
		<path class="st0" d="M47.9,125.2H3.7V0h90c53,0,65.2,7.2,65.2,45.1v3.1c0,38.1-12.2,45.1-65.2,45.1H47.9V125.2z M87.1,62.8
			c26.3,0,28.5-1.8,28.5-15.3v-1.7c0-13.6-2.2-15.5-28.5-15.5H47.9v32.4H87.1z"/>
		<path class="st0" d="M340.3,125.2h-47.1l-11.2-21.7h-76.4l-11,21.7h-46.6L218.8,0h49.9L340.3,125.2z M267,74.6l-23.2-45.1h-0.7
			l-22.8,45.1H267z"/>
		<path class="st0" d="M527.4,125.2h-60.9l-68.9-89.7h-0.7v89.7h-42.7V0h62.6l67.4,89.1h0.7V0h42.5V125.2z"/>
		<path class="st0" d="M695.1,125.2h-146V0h143.6v30.2H592.6v17.7h95v28.4h-95v18.6h102.6V125.2z"/>
		<path class="st0" d="M844.3,125.2H714.8V0H759v91.7h85.3V125.2z"/>
		<path class="st0" d="M179,219.6c0,52.5-9,60.9-85.3,60.9h-90V155.3h90c74.6,0,85.3,7.2,85.3,60.8V219.6z M90.4,247.5
			c41.6,0,44.6-3.5,44.6-28.9v-2.2c0-25-2.9-28.5-44.6-28.5H47.9v59.7H90.4z"/>
		<path class="st0" d="M249.5,280.5h-44.2V155.3h44.2V280.5z"/>
		<path class="st0" d="M358.7,282c-73.5,0-81.6-7.4-81.6-37.2v-4.6h44.4v2.6c0,7.4,4.2,9.6,34.2,9.6h5.2c33.3,0,35.5-2.2,35.5-9.8
			v-1.1c0-7.4-2.8-9.8-38.3-9.8c-72.5,0-80.1-7.5-80.1-38.9v-2.2c0-28,11.4-36.8,70.5-36.8h7.7c70.9,0,78.6,7.5,78.6,36.5v2.9H392
			v-1.5c0-6.3-1.8-9-30-9h-5.7c-33,0-35.5,1.8-35.5,9.2v1.1c0,7.2,1.8,8.8,41.2,8.8c66.3,0,77,7.9,77,38.3v2.6
			c0,29.5-10.9,39.2-74.2,39.2H358.7z"/>
		<path class="st0" d="M548.7,282c-73.3,0-85.8-8.5-85.8-62.8v-2.8c0-54.1,12-62.6,85.8-62.6h5.9c65.2,0,77,7.7,77,42.4v7.7h-44
			v-4.4c0-9.9-2.8-12.9-34.2-12.9H550c-40.5,0-42,2.8-42,30.2v1.5c0,27.1,1.5,30.4,42,30.4h3.3c33.9,0,35.7-2.6,35.7-14.9v-3.9h43.6
			v9c0,32.8-11.4,43.1-78.1,43.1H548.7z"/>
		<path class="st0" d="M735.8,282c-65,0-80.1-10.1-80.1-48.1v-78.6h44.2v67c0,21.7,3.9,25.8,36.6,25.8h2.9
			c32.6,0,36.5-4.2,36.5-25.8v-67h44.2v78.6c0,37.9-14.2,48.1-80.1,48.1H735.8z"/>
		<path class="st0" d="M929.7,282c-73.5,0-81.6-7.4-81.6-37.2v-4.6h44.4v2.6c0,7.4,4.2,9.6,34.2,9.6h5.2c33.3,0,35.5-2.2,35.5-9.8
			v-1.1c0-7.4-2.8-9.8-38.3-9.8c-72.5,0-80.1-7.5-80.1-38.9v-2.2c0-28,11.4-36.8,70.5-36.8h7.7c70.9,0,78.6,7.5,78.6,36.5v2.9h-42.9
			v-1.5c0-6.3-1.8-9-30-9h-5.7c-33,0-35.5,1.8-35.5,9.2v1.1c0,7.2,1.8,8.8,41.2,8.8c66.3,0,77,7.9,77,38.3v2.6
			c0,29.5-10.9,39.2-74.2,39.2H929.7z"/>
		<path class="st0" d="M1102.5,235h-70v-31.7h70V235z"/>
		<path class="st0" d="M81.6,437.3C8.1,437.3,0,429.9,0,400.1v-4.6h44.4v2.6c0,7.4,4.2,9.6,34.2,9.6h5.2c33.3,0,35.5-2.2,35.5-9.8
			v-1.1c0-7.4-2.8-9.8-38.3-9.8c-72.5,0-80.1-7.5-80.1-38.9v-2.2c0-28,11.4-36.8,70.5-36.8h7.7c70.9,0,78.6,7.5,78.6,36.5v2.9h-42.9
			V347c0-6.3-1.8-9-30-9h-5.7c-33,0-35.5,1.8-35.5,9.2v1.1c0,7.2,1.8,8.8,41.2,8.8c66.3,0,77,7.9,77,38.3v2.6
			c0,29.5-10.9,39.2-74.2,39.2H81.6z"/>
		<path class="st0" d="M233.5,435.8h-44.2V310.6h44.2V435.8z"/>
		<path class="st0" d="M348.6,437.3c-75.1,0-86.5-7.9-86.5-62.6v-2.9c0-54.5,11.4-62.6,86.5-62.6h5.7c75.1,0,86.4,8.1,86.4,62.6v2.9
			c0,54.7-11.2,62.6-86.4,62.6H348.6z M353.2,403.9c40.7,0,42.9-2.6,42.9-30.4v-1.5c0-27.6-2.2-30.2-42.9-30.2h-3.3
			c-40.9,0-42.9,2.6-42.9,30.2v1.5c0,27.8,2,30.4,42.9,30.4H353.2z"/>
		<path class="st0" d="M642.5,435.8h-60.9l-68.9-89.7h-0.7v89.7h-42.7V310.6h62.6l67.4,89.1h0.7v-89.1h42.5V435.8z"/>
		<path class="st0" d="M752.4,437.3c-73.5,0-81.6-7.4-81.6-37.2v-4.6h44.4v2.6c0,7.4,4.2,9.6,34.2,9.6h5.2c33.3,0,35.5-2.2,35.5-9.8
			v-1.1c0-7.4-2.8-9.8-38.3-9.8c-72.5,0-80.1-7.5-80.1-38.9v-2.2c0-28,11.4-36.8,70.5-36.8h7.7c70.9,0,78.6,7.5,78.6,36.5v2.9h-42.9
			V347c0-6.3-1.8-9-30-9H750c-33,0-35.5,1.8-35.5,9.2v1.1c0,7.2,1.8,8.8,41.2,8.8c66.3,0,77,7.9,77,38.3v2.6
			c0,29.5-10.9,39.2-74.2,39.2H752.4z"/>
	</g>
</g>
</svg>
